<svg xmlns="http://www.w3.org/2000/svg" xmlns:xlink="http://www.w3.org/1999/xlink" viewBox="0 0 1105.92 551.23" xmlns:v="https://vecta.io/nano"><style><![CDATA[.B{clip-path:url(#v)}.C{fill:none}.D{stroke:#000}.E{stroke-linecap:square}.F{stroke-width:.8}.G{stroke-width:2}.H{stroke:#b0b0b0}]]></style><g fill="#fff"><path d="M0 551.232h1105.92V0H0z"/><path d="M354.56 490.596h424.449V66.148H354.56z"/></g><path d="M399.546 372.251l172.42-101.289-.035-198.823-183.875 94.999" fill="#f2f2f2" opacity=".5" stroke="#f2f2f2"/><path d="M571.966 270.962l173.456 100.561 11.48-205.071-184.97-94.313" fill="#e6e6e6" opacity=".5" stroke="#e6e6e6"/><path d="M399.546 372.251l173.6 113.714 172.276-114.442-173.456-100.561" fill="#ececec" opacity=".5" stroke="#ececec"/><g class="C F"><path d="M399.546 372.251l173.6 113.714" class="D E"/><path d="M408.62 378.195l172.445-101.958.535-199.168M426.485 389.897l172.483-103.281 1.665-199.843M444.588 401.755l172.508-104.629 2.826-200.517M462.937 413.774L635.455 307.77l4.017-201.193M481.534 425.956l172.514-107.407 5.239-201.869M500.386 438.305L672.88 329.467l6.493-202.545M519.498 450.824l172.459-110.297 7.78-203.221M538.875 463.517l172.407-111.786 9.102-203.898M558.523 476.386l172.338-113.305 10.459-204.574" class="H"/><path d="M410.084 377.33l-4.396 2.599" class="D E"/></g><g transform="matrix(.1 0 0 -.1 392.259157 401.443486)"><defs><path id="A" d="M678 2272h4006v-531H678v531z" transform="scale(.015625)"/><path id="B" d="M2113 2584q-425 0-674-291-248-290-248-796 0-503 248-796 249-292 674-292 425 0 673 292 248 293 248 796 0 506-248 796-248 291-673 291zm1253 1979v-575q-238 112-480 171-242 60-480 60-625 0-955-422-329-422-376-1275 184 272 462 417 279 145 613 145 703 0 1111-427 408-426 408-1160 0-719-425-1154Q2819-91 2113-91q-810 0-1238 620-428 621-428 1799 0 1106 525 1764 525 658 1409 658 238 0 480-47 242-47 505-140z" transform="scale(.015625)"/><path id="C" d="M566.427 182.21l.413 16.617.519 12.3.62 9.651.72 7.904.822 6.674.918 5.705 1.023 4.992 1.129 4.408 1.209 3.838 1.297 3.394 1.409 3.068 1.51 2.748 1.593 2.438 1.653 2.139 1.77 1.942 1.883 1.747 2.093 1.63 2.211 1.432 2.317 1.24 2.551 1.11 2.808.967 2.922.771 3.201.616 3.508.445 3.844.258 4.213.053 4.618-.173 5.063-.42 5.552-.692.324-.047"/></defs><use xlink:href="#A"/><use xlink:href="#B" x="83.789"/></g><path d="M427.949 389.02l-4.398 2.634" class="C D E F"/><g transform="matrix(.1 0 0 -.1 410.062737 413.24887)"><defs><path id="D" d="M691 4666h2478v-532H1269V2991q137 47 274 70 138 23 276 23 781 0 1237-428 457-428 457-1159 0-753-469-1171Q2575-91 1722-91q-294 0-599 50Q819 9 494 109v635q281-153 581-228 300-75 634-75 541 0 856 284 316 284 316 772 0 487-316 771-315 285-856 285-253 0-505-56-251-56-513-175v2344z" transform="scale(.015625)"/></defs><use xlink:href="#A"/><use xlink:href="#D" x="83.789"/></g><path d="M446.054 400.866l-4.401 2.669" class="C D E F"/><g transform="matrix(.1 0 0 -.1 428.105049 425.212554)"><defs><path id="E" d="M2419 4116L825 1625h1594v2491zm-166 550h794V1625h666v-525h-666V0h-628v1100H313v609l1940 2957z" transform="scale(.015625)"/></defs><use xlink:href="#A"/><use xlink:href="#E" x="83.789"/></g><path d="M464.403 412.873L460 415.579" class="C D E F"/><g transform="matrix(.1 0 0 -.1 446.390928 437.337746)"><defs><path id="F" d="M2597 2516q453-97 707-404 255-306 255-756 0-690-475-1069Q2609-91 1734-91q-293 0-604 58-311 58-642 174v609q262-153 574-231 313-78 654-78 593 0 904 234 311 234 311 681 0 413-289 645-289 233-804 233h-544v519h569q465 0 712 186 247 186 247 536 0 359-255 551-254 193-729 193-260 0-557-57-297-56-653-174v562q360 100 674 150 314 50 592 50 719 0 1137-327 419-326 419-882 0-388-222-655-222-267-631-370z" transform="scale(.015625)"/></defs><use xlink:href="#A"/><use xlink:href="#F" x="83.789"/></g><path d="M483.001 425.043l-4.405 2.742" class="C D E F"/><g transform="matrix(.1 0 0 -.1 464.925339 449.627736)"><defs><path id="G" d="M1228 531h2203V0H469v531q359 372 979 998 621 627 780 809 303 340 423 576 121 236 121 464 0 372-261 606-261 235-680 235-297 0-627-103-329-103-704-313v638q381 153 712 231 332 78 607 78 725 0 1156-363 431-362 431-968 0-288-108-546-107-257-392-607-78-91-497-524-418-433-1181-1211z" transform="scale(.015625)"/></defs><use xlink:href="#A"/><use xlink:href="#G" x="83.789"/></g><path d="M501.854 437.379l-4.406 2.78" class="C D E F"/><g transform="matrix(.1 0 0 -.1 483.713384 462.085909)"><defs><path id="H" d="M794 531h1031v3560L703 3866v575l1116 225h631V531h1031V0H794v531z" transform="scale(.015625)"/></defs><use xlink:href="#A"/><use xlink:href="#H" x="83.789"/></g><path d="M520.966 449.885l-4.407 2.818" class="C D E F"/><g transform="matrix(.1 0 0 -.1 506.950148 474.71574)"><defs><path id="I" d="M2034 4250q-487 0-733-480-245-479-245-1442 0-959 245-1439 246-480 733-480 491 0 736 480 246 480 246 1439 0 963-246 1442-245 480-736 480zm0 500q785 0 1199-621 414-620 414-1801 0-1178-414-1799Q2819-91 2034-91q-784 0-1198 620-414 621-414 1799 0 1181 414 1801 414 621 1198 621z" transform="scale(.015625)"/></defs><use xlink:href="#I"/></g><path d="M540.343 462.565l-4.407 2.858" class="C D E F"/><use xlink:href="#H" transform="matrix(.1 0 0 -.1 526.261332 487.520801)"/><path d="M559.991 475.422l-4.407 2.898" class="C D E F"/><use xlink:href="#G" transform="matrix(.1 0 0 -.1 545.842318 500.504766)"/><g class="C F"><path d="M745.422 371.523L573.146 485.965" class="D E"/><path d="M396.659 162.693l10.924 204.836 173.622 113.082M417.574 151.888l9.562 204.156L600.8 467.595M438.197 141.233l8.235 203.475L620.121 454.76M458.535 130.725l6.943 202.794 173.698 108.583m-160.582-321.74l5.684 202.113 173.691 107.143M498.379 110.14l4.458 201.432 173.669 105.731m-158.61-317.247l3.263 200.752 173.633 104.347M537.151 90.108l2.1 200.072 173.583 102.991M556.148 80.293l.966 199.393 173.519 101.66" class="H"/><path d="M579.728 479.648l4.439 2.891" class="D E"/></g><g transform="matrix(.1 0 0 -.1 583.421041 504.723336)"><use xlink:href="#A"/><use xlink:href="#G" x="83.789"/></g><path d="M599.322 466.645l4.438 2.851" class="C D E F"/><g transform="matrix(.1 0 0 -.1 602.946277 491.592612)"><use xlink:href="#A"/><use xlink:href="#H" x="83.789"/></g><path d="M618.644 453.823l4.437 2.811" class="C D E F"/><use xlink:href="#I" transform="matrix(.1 0 0 -.1 626.389911 478.644436)"/><path d="M637.699 441.178l4.435 2.773" class="C D E F"/><use xlink:href="#H" transform="matrix(.1 0 0 -.1 645.377878 465.875026)"/><path d="M656.493 428.707l4.433 2.735" class="C D E F"/><use xlink:href="#G" transform="matrix(.1 0 0 -.1 664.105487 453.280706)"/><path d="M675.031 416.405l4.431 2.698" class="C D E F"/><use xlink:href="#F" transform="matrix(.1 0 0 -.1 682.578058 440.857899)"/><path d="M693.318 404.269l4.428 2.661" class="C D E F"/><use xlink:href="#E" transform="matrix(.1 0 0 -.1 700.800766 428.603126)"/><path d="M711.36 392.297l4.425 2.626" class="C D E F"/><use xlink:href="#D" transform="matrix(.1 0 0 -.1 718.778645 416.512999)"/><path d="M729.161 380.484l4.422 2.591" class="C D E F"/><use xlink:href="#B" transform="matrix(.1 0 0 -.1 736.516597 404.584224)"/><g class="C F"><path d="M745.422 371.523l11.48-205.071" class="D E"/><path d="M746.634 349.872l-174.672-99.973-173.629 100.697m349.489-21.954l-175.864-99.38-174.815 100.1m351.884-22.241l-177.072-98.762-176.017 99.478m354.31-22.535l-178.297-98.119-177.236 98.83m356.772-22.835l-179.54-97.448-178.472 98.156m359.268-23.141l-180.799-96.751-179.725 97.454m361.797-23.454L571.94 121.968l-180.996 96.723m364.364-23.772L571.936 99.648l-182.285 95.963m366.967-24.098L571.932 77.028 388.34 172.2" class="H"/><path d="M745.151 349.024l4.452 2.548" class="D E"/></g><g transform="matrix(.1 0 0 -.1 757.373507 357.432787)"><use xlink:href="#A"/><use xlink:href="#D" x="83.789"/></g><path d="M746.329 327.799l4.484 2.534" class="C D E F"/><g transform="matrix(.1 0 0 -.1 758.685511 336.203394)"><use xlink:href="#A"/><use xlink:href="#E" x="83.789"/></g><path d="M747.523 306.282l4.516 2.519" class="C D E F"/><g transform="matrix(.1 0 0 -.1 760.015547 314.682214)"><use xlink:href="#A"/><use xlink:href="#F" x="83.789"/></g><path d="M748.733 284.468l4.55 2.504" class="C D E F"/><g transform="matrix(.1 0 0 -.1 761.363991 292.863188)"><use xlink:href="#A"/><use xlink:href="#G" x="83.789"/></g><path d="M749.961 262.35l4.583 2.488" class="C D E F"/><g transform="matrix(.1 0 0 -.1 762.731227 270.74009)"><use xlink:href="#A"/><use xlink:href="#H" x="83.789"/></g><path d="M751.205 239.922l4.617 2.471" class="C D E F"/><use xlink:href="#I" transform="matrix(.1 0 0 -.1 768.307494 248.30652)"/><path d="M752.467 217.177l4.652 2.453" class="C D E F"/><use xlink:href="#H" transform="matrix(.1 0 0 -.1 769.713512 225.555895)"/><path d="M753.747 194.108l4.687 2.435" class="C D E F"/><use xlink:href="#G" transform="matrix(.1 0 0 -.1 771.139542 202.481447)"/><path d="M755.046 170.709l4.723 2.416" class="C D E F"/><use xlink:href="#F" transform="matrix(.1 0 0 -.1 772.586016 179.076211)"/><path d="M589.453 274.973l-2.471-1.292-2.677-1.142-2.855-.981-3.196-.856-3.326-.655-3.418-.447-3.471-.235-3.482-.021-3.454.192-3.386.401-3.279.605-3.134.8-2.954.985-2.585 1.085-2.37 1.226-2.132 1.354-1.763 1.372-1.52 1.458-1.265 1.53-.941 1.481-.702 1.52-.46 1.547-.207 1.449.005 1.451.217 1.444.426 1.427.689 1.506.921 1.463 1.146 1.409 1.467 1.437 1.7 1.349 2.052 1.33 2.278 1.203 2.481 1.065 2.83.969 2.997.79 3.131.603 3.421.427 3.488.204 3.511-.021 3.49-.245 3.425-.467 3.317-.683 2.996-.836 2.83-1.012 2.632-1.176 2.271-1.246 2.047-1.368 1.803-1.477 1.454-1.471 1.211-1.541.903-1.49.675-1.528.443-1.555.208-1.57-.029-1.574-.265-1.565-.5-1.545-.73-1.513-.954-1.469-1.263-1.513-1.501-1.437-1.724-1.349-2.069-1.328" stroke="#00f" class="B C G"/><g fill="red"><g transform="matrix(.1 0 0 -.1 566.567413 462.89283)"><defs><path id="J" d="M403 4666h678l1160-1735 1165 1735h678L2584 2425 4184 0h-678L2194 1984 872 0H191l1665 2491L403 4666z" transform="scale(.015625)"/><path id="K" d="M2631 2963q-97 56-211 82-114 27-251 27-488 0-749-317-261-317-261-911V0H581v3500h578v-544q182 319 472 473 291 155 707 155 59 0 131-8 72-7 159-23l3-590z" transform="scale(.015625)"/></defs><use xlink:href="#J"/><use xlink:href="#K" x="68.506"/></g><g transform="matrix(.1 0 0 -.1 566.215514 285.768768)"><defs><path id="L" d="M603 3500h575V0H603v3500zm0 1363h575v-729H603v729z" transform="scale(.015625)"/></defs><use xlink:href="#J"/><use xlink:href="#L" x="68.506"/></g><g transform="matrix(.1 0 0 -.1 716.571275 202.040402)"><defs><path id="M" d="M-13 4666h679l1293-1919 1285 1919h678L2272 2222V0h-634v2222L-13 4666z" transform="scale(.015625)"/></defs><use xlink:href="#M"/><use xlink:href="#K" x="61.084"/></g><g transform="matrix(.1 0 0 -.1 415.473947 202.612981)"><use xlink:href="#M"/><use xlink:href="#L" x="57.459"/></g></g><g transform="matrix(.12 0 0 -.12 415.6965 60.14784)"><defs><path id="N" d="M3834 4519v-988q-384 172-750 259-365 88-690 88-431 0-638-119-206-118-206-368 0-188 139-293 139-104 505-179l512-103q778-157 1106-476 329-318 329-906 0-771-458-1148Q3225-91 2284-91q-443 0-890 85-447 84-894 250v1015q447-237 864-358 417-120 805-120 394 0 603 131 209 132 209 376 0 218-142 337-142 119-567 213l-466 103q-700 150-1024 478-323 328-323 884 0 697 450 1072 450 375 1294 375 385 0 791-58 406-58 840-173z" transform="scale(.015625)"/><path id="O" d="M500 1363v2137h1125v-350q0-284-3-714-3-430-3-573 0-422 22-608 22-186 75-271 68-109 179-169 111-59 255-59 350 0 550 269 200 269 200 747v1728h1119V0H2900v506q-253-306-536-452-283-145-623-145-607 0-924 372-317 372-317 1082z" transform="scale(.015625)"/><path id="P" d="M3138 2547q-147 69-293 101-145 33-292 33-431 0-664-277-233-276-233-791V0H538v3500h1118v-575q216 344 495 501 280 158 671 158 56 0 121-5 66-4 191-20l4-1012z" transform="scale(.015625)"/><path id="Q" d="M2841 4863v-735h-619q-238 0-332-86-93-86-93-298v-244h956v-800h-956V0H678v2700H122v800h556v244q0 572 319 845 319 274 987 274h857z" transform="scale(.015625)"/><path id="R" d="M2106 1575q-350 0-527-119-176-118-176-350 0-212 142-333 143-120 396-120 315 0 531 226 216 227 216 568v128h-582zm1710 422V0H2688v519q-225-319-507-465-281-145-684-145-544 0-883 317-339 318-339 824 0 616 423 903 424 288 1330 288h660v87q0 266-210 389-209 124-653 124-359 0-669-72-309-72-575-216v853q360 88 722 133 363 45 725 45 947 0 1367-373 421-373 421-1214z" transform="scale(.015625)"/><path id="S" d="M3366 3391v-913q-228 156-458 231-230 75-477 75-468 0-729-273-261-273-261-764 0-491 261-765 261-273 729-273 263 0 499 78 236 79 436 232V103Q3103 6 2833-42q-270-49-542-49-947 0-1482 486-534 486-534 1352 0 866 534 1351 535 486 1482 486 275 0 542-48 267-48 533-145z" transform="scale(.015625)"/><path id="T" d="M4031 1759v-318H1416q40-394 284-591 244-197 681-197 353 0 723 105 371 105 762 317V213Q3469 63 3072-14q-397-77-794-77-950 0-1477 483-526 483-526 1355 0 856 517 1346 517 491 1424 491 825 0 1320-497 495-496 495-1328zm-1150 372q0 319-186 514-186 196-486 196-325 0-528-183-203-183-253-527h1453z" transform="scale(.015625)"/><path id="U" d="M2203 2784q-372 0-567-267-195-267-195-770 0-503 195-771 195-267 567-267 366 0 559 267 194 268 194 771 0 503-194 770-193 267-559 267zm0 800q903 0 1411-488 508-487 508-1349 0-863-508-1351Q3106-91 2203-91q-906 0-1417 487-511 488-511 1351 0 862 511 1349 511 488 1417 488z" transform="scale(.015625)"/><path id="V" d="M1759 4494v-994h1154v-800H1759V1216q0-244 97-330 97-86 385-86h575V0h-960q-662 0-939 276-276 277-276 940v1484H84v800h557v994h1118z" transform="scale(.015625)"/><path id="W" d="M4056 2131V0H2931v347 1278q0 459-20 631-20 172-70 253-66 110-179 171-112 61-256 61-350 0-550-271-200-270-200-748V0H538v4863h1118V2988q253 306 537 451 285 145 629 145 606 0 920-372 314-371 314-1081z" transform="scale(.015625)"/><path id="X" d="M4288 256Q3956 84 3597-3q-359-88-750-88-1166 0-1847 652-681 652-681 1767 0 1119 681 1770 681 652 1847 652 391 0 750-88 359-87 691-259v-965q-335 228-660 334-325 106-684 106-644 0-1013-413-368-412-368-1137 0-722 368-1135 369-412 1013-412 359 0 684 106 325 107 660 335V256z" transform="scale(.015625)"/><path id="Y" d="M3781 2919q213 325 505 495 292 170 642 170 603 0 919-372 316-371 316-1081V0H5038v1825q3 41 4 84 2 44 2 125 0 372-110 539-109 168-353 168-318 0-492-263-173-262-180-759V0H2784v1825q0 581-100 748-100 168-356 168-322 0-497-264-175-264-175-755V0H531v3500h1125v-512q207 296 474 446 267 150 589 150 362 0 640-175 279-175 422-490z" transform="scale(.015625)"/><path id="Z" d="M1656 506v-1837H538v4831h1118v-512q232 306 513 451 281 145 647 145 647 0 1062-514 416-514 416-1323 0-809-416-1324Q3463-91 2816-91q-366 0-647 145-281 146-513 452zm744 2266q-359 0-552-264-192-264-192-761 0-497 192-761 193-264 552-264 359 0 548 262 190 263 190 763 0 500-190 762-189 263-548 263z" transform="scale(.015625)"/><path id="a" d="M538 4863h1118V0H538v4863z" transform="scale(.015625)"/><path id="b" d="M1422 1791L159 3500h1185l715-1037 725 1037h1185L2706 1797 4031 0H2847l-788 1106L1281 0H97l1325 1791z" transform="scale(.015625)"/><path id="c" d="M588 4666h3246v-910H1791v-868h1922v-910H1791V0H588v4666z" transform="scale(.015625)"/><path id="d" d="M4056 2131V0H2931v347 1284q0 453-20 625-20 172-70 253-66 110-179 171-112 61-256 61-350 0-550-271-200-270-200-748V0H538v3500h1118v-512q253 306 537 451 285 145 629 145 606 0 920-372 314-371 314-1081z" transform="scale(.015625)"/><path id="e" d="M538 3500h1118V0H538v3500zm0 1363h1118v-913H538v913z" transform="scale(.015625)"/><path id="f" d="M2413-844h-929Q1006-72 778 623q-228 696-228 1380 0 685 229 1386 230 702 705 1467h929q-400-740-600-1448-200-708-200-1399 0-690 198-1400 198-709 602-1453z" transform="scale(.015625)"/><path id="g" d="M513-844q400 744 600 1453 200 710 200 1400 0 691-200 1399-200 708-600 1448h928q475-765 704-1467 230-701 230-1386 0-684-228-1380-228-695-706-1467H513z" transform="scale(.015625)"/><path id="h" d="M678 3084h4006v-734H678v734zm0-1421h4006V922H678v741z" transform="scale(.015625)"/></defs><use xlink:href="#N"/><use xlink:href="#O" x="72.021"/><use xlink:href="#P" x="143.213"/><use xlink:href="#Q" x="192.529"/><use xlink:href="#R" x="236.035"/><use xlink:href="#S" x="303.516"/><use xlink:href="#T" x="362.793"/><use xlink:href="#BV" x="430.615"/><use xlink:href="#U" x="465.43"/><use xlink:href="#Q" x="534.131"/><use xlink:href="#BV" x="577.637"/><use xlink:href="#V" x="612.451"/><use xlink:href="#W" x="660.254"/><use xlink:href="#T" x="731.445"/><use xlink:href="#BV" x="799.268"/><use xlink:href="#X" x="834.082"/><use xlink:href="#U" x="907.471"/><use xlink:href="#Y" x="976.172"/><use xlink:href="#Z" x="1080.371"/><use xlink:href="#a" x="1151.953"/><use xlink:href="#T" x="1186.23"/><use xlink:href="#b" x="1254.053"/><use xlink:href="#BV" x="1318.555"/><use xlink:href="#c" x="1353.369"/><use xlink:href="#O" x="1416.68"/><use xlink:href="#d" x="1487.871"/><use xlink:href="#S" x="1559.063"/><use xlink:href="#V" x="1618.34"/><use xlink:href="#e" x="1666.143"/><use xlink:href="#U" x="1700.42"/><use xlink:href="#d" x="1769.121"/><use xlink:href="#BV" x="1840.313"/><use xlink:href="#Q" x="1875.127"/><use xlink:href="#f" x="1918.633"/><use xlink:href="#b" x="1964.336"/><use xlink:href="#g" x="2028.838"/><use xlink:href="#h" x="2074.541"/><use xlink:href="#T" x="2158.33"/><use xlink:href="#b" x="2226.152"/><use xlink:href="#Z" x="2290.654"/><use xlink:href="#f" x="2362.236"/><use xlink:href="#b" x="2407.939"/><use xlink:href="#g" x="2472.441"/></g><g class="C"><g stroke="#1f77b4" stroke-width=".7"><use xlink:href="#C" class="B"/><path d="M566.368 182.294l.393 17.716.499 12.869.599 9.945.699 8.053.794 6.68.893 5.693.977 4.845 1.078 4.247 1.154 3.666 1.238 3.21 1.345 2.868 1.384 2.443 1.513 2.218 1.57 1.912 1.682 1.698 1.789 1.488 1.89 1.283 1.981 1.084 2.181.938 2.269.742 2.486.584 2.724.411 2.985.221 3.272.013 3.587-.216 3.932-.467 4.312-.743 4.729-1.046.832-.206" class="B"/><path d="M566.304 182.382l.371 19.32.472 13.551.575 10.343.666 8.173.768 6.771.857 5.639.945 4.767 1.021 4.037 1.093 3.441 1.172 2.969 1.228 2.519 1.305 2.18 1.366 1.857 1.406 1.554 1.495 1.335 1.58 1.121 1.656.914 1.823.753 1.897.549 2.078.373 2.278.18 2.496-.032 2.736-.265 3-.52 3.29-.801 3.608-1.109 3.728-1.358" class="B"/><path d="M566.234 182.476l.344 21.677.443 14.583.543 10.82.632 8.356.73 6.788.809 5.502.876 4.493.946 3.74 1.013 3.122 1.049 2.546 1.132 2.169 1.155 1.742 1.199 1.418 1.223 1.121 1.292.895 1.354.678 1.491.492 1.552.278 1.7.076 1.864-.146 2.043-.389 2.24-.656 2.456-.949 2.851-1.353 3.144-1.75.174-.104" class="B"/><path d="M566.16 182.574l.312 25.534.406 16.045.503 11.427.586 8.51.671 6.629.739 5.173.806 4.11.854 3.219.885 2.492.908 1.915.935 1.462.936 1.064.955.759 1.008.513 1.057.277 1.1.054 1.206-.17 1.322-.415 1.533-.73 1.69-1.062 1.966-1.514 2.179-1.964.464-.451" class="B"/><path d="M566.084 182.679l.276 33.845.357 18.311.438 11.808.513 8.192.566 5.714.6 3.975.616 2.712.616 1.786.592 1.095.578.626.538.272.533.029.584-.197.677-.476.829-.882.969-1.37 1.19-2.08.936-1.886m-11.484-81.365l.04 81.769-.137 6.269-.017-.05-.073-1.071-.178-5.959m.288-80.842l-.149 32.626-.289 17.959-.401 11.877-.493 8.296-.557 5.843-.613 4.196-.641 2.917-.651 1.968-.635 1.25-.602.73-.591.383-.593.116-.618-.113-.678-.351-.831-.698-.97-1.12-1.19-1.735-1.403-2.45-.188-.356" class="B"/><path d="M565.856 183.025l-.215 25.001-.343 15.714-.457 11.265-.557 8.496-.65 6.634-.723 5.192-.796 4.141-.847 3.259-.881 2.54-.907 1.968-.935 1.521-.937 1.125-.958.824-1.013.584-1.063.353-1.107.134-1.214-.08-1.331-.314-1.46-.572-1.695-.912-1.87-1.261-2.177-1.744-1.419-1.271" class="B"/><path d="M565.784 183.151l-.259 21.225-.385 14.331-.502 10.732-.601 8.294-.705 6.744-.79 5.474-.861 4.476-.935 3.732-1.004 3.123-1.042 2.553-1.127 2.183-1.152 1.761-1.197 1.441-1.284 1.198-1.299.918-1.363.704-1.501.523-1.563.313-1.714.116-1.879-.099-2.061-.336-2.26-.595-2.479-.88-2.879-1.27-3.176-1.656-.531-.299" class="B"/><path d="M565.716 183.283l-.294 18.955-.42 13.386-.535 10.221-.636 8.079-.743 6.697-.837 5.58-.928 4.721-1.007 4.001-1.082 3.413-1.163 2.949-1.22 2.506-1.299 2.172-1.362 1.854-1.47 1.623-1.501 1.333-1.586 1.123-1.756.964-1.842.753-2.03.578-2.113.37-2.316.179-2.54-.03-2.785-.259-3.054-.511-3.35-.788-3.675-1.092-3.334-1.164" class="B"/><path d="M565.654 183.419l-.323 17.443-.448 12.672-.559 9.795-.667 7.932-.767 6.582-.87 5.612-.956 4.779-1.06 4.191-1.138 3.619-1.224 3.172-1.333 2.837-1.373 2.419-1.503 2.199-1.561 1.898-1.674 1.689-1.782 1.483-1.883 1.282-2.084 1.14-2.186.938-2.408.782-2.506.583-2.747.413-3.011.227-3.301.023-3.619-.201-3.969-.447-4.353-.717-4.775-1.014-.278-.066" class="B"/><path d="M565.598 183.559l-.349 16.436-.469 12.073-.589 9.598-.691 7.759-.798 6.552-.898 5.602-1.006 4.903-1.115 4.33-1.197 3.771-1.286 3.336-1.4 3.016-1.502 2.703-1.587 2.399-1.724 2.196-1.776 1.908-1.89 1.717-2.102 1.604-2.221 1.41-2.329 1.221-2.565 1.095-2.825.955-2.94.763-3.222.611-3.531.444-3.871.261-4.243.061-4.652-.159-5.101-.401-4.947-.579" class="B"/><path d="M565.549 183.703l-.365 15.558-.488 11.722-.608 9.393-.714 7.696-.818 6.506-.936 5.692-1.048 5.006-1.128 4.331-1.24 3.9-1.333 3.476-1.451 3.17-1.556 2.869-1.643 2.575-1.786 2.388-1.927 2.2-2.065 2.014-2.198 1.83-2.322 1.65-2.57 1.548-2.695 1.367-2.967 1.256-3.267 1.132-3.4.948-3.725.814-4.082.667-4.474.506-4.904.33-5.375.136-5.893-.077-3.156-.125" class="B"/><path d="M565.509 183.85l-.382 15.06-.501 11.368-.619 9.183-.729 7.626-.847 6.573-.945 5.65-1.05 4.979-1.155 4.435-1.27 4.016-1.364 3.601-1.485 3.308-1.593 3.017-1.753 2.84-1.836 2.557-1.981 2.383-2.123 2.211-2.259 2.04-2.512 1.963-2.654 1.79-2.936 1.704-3.079 1.531-3.39 1.436-3.732 1.331-4.109 1.216-4.276 1.035-4.685.909-5.133.772-5.625.621-6.165.456-5.976.253" class="B"/><path d="M565.478 184l-.394 14.689-.518 11.266-.635 9.094-.742 7.55-.855 6.51-.97 5.722-1.078 5.061-1.185 4.527-1.303 4.119-1.4 3.713-1.523 3.43-1.634 3.149-1.798 2.986-1.883 2.71-2.032 2.549-2.177 2.389-2.433 2.335-2.588 2.172-2.734 2.012-3.024 1.949-3.346 1.881-3.507 1.716-3.861 1.64-4.25 1.556-4.679 1.463-4.868 1.292-5.332 1.192-5.842 1.082-6.4.961-7.013.828-.82.083" class="B"/><path d="M565.455 184.151l-.402 14.446-.52 11.037-.638 9.005-.754 7.599-.869 6.569-.985 5.792-1.095 5.141-1.203 4.616-1.323 4.217-1.471 3.943-1.555 3.547-1.733 3.396-1.844 3.124-2.017 2.973-2.19 2.821-2.363 2.67-2.532 2.518-2.693 2.368-2.994 2.328-3.162 2.176-3.497 2.132-3.666 1.979-4.034 1.93-4.44 1.876-4.887 1.816-5.379 1.749-5.595 1.59-6.128 1.518-6.712 1.439-7.352 1.353" class="B"/><path d="M565.443 184.303l-.407 14.33-.529 11.062-.649 9.041-.767 7.646-.884 6.627-1.003 5.86-1.114 5.218-1.224 4.702-1.346 4.313-1.496 4.05-1.64 3.787-1.772 3.523-1.885 3.26-2.061 3.122-2.238 2.984-2.414 2.846-2.586 2.707-2.751 2.569-3.057 2.552-3.228 2.413-3.57 2.393-3.949 2.372-4.138 2.231-4.553 2.207-5.011 2.181-5.514 2.151-6.068 2.119-6.677 2.083-6.943 1.937-6.287 1.584m85.759-123.718l-.409 14.342-.532 11.087-.652 9.078-.771 7.694-.888 6.685-1.007 5.928-1.119 5.295-1.266 4.918-1.358 4.409-1.51 4.158-1.655 3.905-1.788 3.652-1.98 3.529-2.09 3.274-2.269 3.149-2.447 3.024-2.621 2.898-2.928 2.904-3.114 2.778-3.461 2.785-3.654 2.658-4.04 2.665-4.467 2.672-4.68 2.546-5.149 2.553-5.665 2.561-6.232 2.57-6.856 2.579-7.542 2.589-3.832 1.23m85.989-129.963l-.404 14.353-.525 11.112-.644 9.115-.76 7.742-.896 6.873-.999 5.996-1.14 5.504-1.262 5.008-1.398 4.639-1.513 4.268-1.658 4.026-1.791 3.783-1.983 3.674-2.182 3.566-2.385 3.457-2.59 3.347-2.793 3.238-2.991 3.127-3.34 3.16-3.551 3.05-3.946 3.087-4.165 2.977-4.604 3.017-5.089 3.061-5.626 3.109-5.893 3.003-6.481 3.056-7.127 3.113-6.977 2.839m84.73-136.15l-.4 14.619-.521 11.266-.644 9.283-.767 7.922-.89 6.935-1.018 6.2-1.139 5.588-1.261 5.102-1.396 4.745-1.563 4.52-1.725 4.294-1.876 4.065-2.011 3.832-2.212 3.739-2.418 3.646-2.625 3.554-2.83 3.46-3.03 3.365-3.384 3.426-3.597 3.333-3.996 3.401-4.439 3.476-4.684 3.387-5.176 3.47-5.72 3.561-6.321 3.661-6.618 3.581-7.276 3.69-2.445 1.19m82.009-142.162l-.393 15.012-.517 11.551-.639 9.454-.766 8.107-.896 7.134-1.008 6.279-1.158 5.813-1.291 5.341-1.44 4.999-1.571 4.651-1.733 4.439-1.885 4.223-2.101 4.152-2.234 3.929-2.441 3.855-2.65 3.78-2.988 3.867-3.221 3.797-3.448 3.726-3.849 3.828-4.091 3.76-4.543 3.874-5.045 4.001-5.322 3.94-5.879 4.08-6.494 4.234-7.173 4.404-3.075 1.813m77.887-147.898l-.381 15.532-.504 11.837-.633 9.758-.757 8.297-.873 7.206-1.006 6.497-1.134 5.911-1.265 5.451-1.411 5.123-1.589 4.933-1.766 4.742-1.934 4.546-2.088 4.345-2.311 4.296-2.542 4.249-2.777 4.203-3.013 4.158-3.248 4.111-3.643 4.249-3.899 4.208-4.351 4.365-4.622 4.33-5.131 4.506-5.695 4.7-6.321 4.916-6.663 4.903-2.855 2.026m72.456-153.256l-.364 16.179-.488 12.255-.618 10.068-.737 8.494-.875 7.555-.999 6.731-1.135 6.164-1.275 5.724-1.432 5.417-1.574 5.102-1.748 4.929-1.915 4.752-2.146 4.733-2.39 4.718-2.541 4.531-2.893 4.695-3.16 4.689-3.428 4.683-3.693 4.676-4.141 4.882-4.43 4.884-4.941 5.117-5.51 5.377-5.85 5.401-6.489 5.691-.983.838m65.807-158.147l-.342 17.082-.469 12.807-.594 10.387-.72 8.836-.85 7.786-1.001 7.124-1.125 6.442-1.274 6.027-1.44 5.748-1.594 5.46-1.783 5.32-1.966 5.176-2.217 5.201-2.392 5.049-2.646 5.074-2.908 5.103-3.176 5.134-3.596 5.386-3.899 5.437-4.392 5.73-4.729 5.8-5.298 6.138-5.662 6.223-3.936 4.156m58.067-162.493l-.318 18.368-.451 13.631-.581 10.99-.713 9.344-.845 8.193-.987 7.425-1.118 6.772-1.275 6.39-1.452 6.151-1.618 5.901-1.821 5.807-2.022 5.71-2.293 5.796-2.492 5.695-2.773 5.787-3.066 5.887-3.368 5.993-3.832 6.354-4.18 6.494-4.729 6.92-5.122 7.094-4.258 5.642m49.378-166.216l-.288 20.169-.422 14.602-.551 11.622-.687 9.889-.817 8.646-.968 7.926-1.114 7.323-1.287 7.002-1.445 6.661-1.67 6.645-1.847 6.448-2.064 6.42-2.354 6.597-2.667 6.797-2.896 6.778-3.221 6.987-3.699 7.485-4.085 7.756-4.481 8.036-3.255 5.591m39.886-169.257l-.249 22.875-.388 16.008-.52 12.589-.658 10.666-.806 9.509-.964 8.737-1.133 8.232-1.304 7.855-1.485 7.616-1.737 7.738-1.947 7.666-2.204 7.791-2.542 8.162-2.912 8.581-3.204 8.752-3.603 9.209-4.025 9.698m29.753-171.568l-.2 27.535-.345 18.19-.484 14.15-.627 11.983-.789 10.864-.959 10.134-1.135 9.667-1.365 9.709-1.597 9.752-1.863 10.002-2.189 10.519-2.538 11.087-2.903 11.69-2.089 7.938m19.157-173.109l-.122 38.301-.285 22.686-.438 17.617-.605 15.516-.792 14.648-1.023 14.785-1.285 15.34-1.631 16.736-2.014 18.33m8.269-173.854l.271 60.764.358 31.517.533 27.384.784 28.744.85 25.484m-2.722-173.794l.29 31.982.395 20.107.519 15.487.661 13.256.829 12.229 1.022 11.776 1.233 11.627 1.479 11.848 1.796 12.561 2.14 13.362 2.565 14.56.784 4.226M566.18 186.238l.324 25.03.431 16.904.555 13.326.684 11.221.827 10.004.992 9.32 1.174 8.914 1.364 8.644 1.568 8.526 1.802 8.585 2.088 8.866 2.389 9.172 2.781 9.774 3.118 10.142 3.564 10.839.712 2.089m-24.304-171.269l.351 21.374.461 15.152.586 12.117.709 10.175.843 8.983.983 8.168 1.158 7.768 1.318 7.345 1.526 7.231 1.731 7.113 1.924 6.976 2.229 7.233 2.487 7.3 2.831 7.602 3.092 7.671 3.583 8.281 4.003 8.672 4.443 9.086.341.678m-34.534-168.844l.377 19.149.49 14.001.605 11.162.737 9.562.858 8.314 1.001 7.58 1.164 7.11 1.305 6.617 1.492 6.415 1.67 6.203 1.889 6.153 2.108 6.101 2.32 6.043 2.612 6.182 2.922 6.336 3.248 6.504 3.587 6.684 3.935 6.87 4.472 7.353 4.873 7.585 2.559 3.838m-44.164-165.685l.397 17.571.512 13.139.624 10.522.752 9.015.873 7.867 1.004 7.094 1.151 6.578 1.307 6.19 1.484 5.941 1.65 5.682 1.854 5.575 2.056 5.464 2.248 5.346 2.516 5.405 2.799 5.474 3.093 5.55 3.396 5.631 3.704 5.715 4.192 6.048 4.541 6.158 5.11 6.546 5.496 6.68 2.325 2.732m-53.031-161.852l.416 16.507.528 12.424.64 10.038.769 8.637.898 7.6 1.025 6.805 1.167 6.264 1.316 5.849 1.442 5.418 1.631 5.272 1.821 5.125 2.006 4.973 2.178 4.815 2.423 4.82 2.679 4.83 2.943 4.844 3.212 4.86 3.482 4.876 3.922 5.107 4.222 5.138 4.731 5.405 5.3 5.702 5.665 5.765 6.616 6.388m-60.986-157.394l.432 15.698.539 11.848.655 9.699.776 8.279.893 7.222 1.028 6.54 1.162 5.979 1.302 5.541 1.458 5.235 1.598 4.92 1.773 4.743 1.939 4.562 2.171 4.532 2.324 4.344 2.554 4.312 2.788 4.282 3.157 4.432 3.423 4.413 3.687 4.393 4.134 4.573 4.421 4.561 4.93 4.765 5.498 4.992 5.836 5 6.474 5.253 2.987 2.336m-67.901-152.39l.441 15.019.553 11.53.663 9.369.788 8.064.9 6.994 1.03 6.297 1.155 5.72 1.285 5.266 1.429 4.94 1.606 4.748 1.722 4.41 1.94 4.353 2.092 4.151 2.314 4.094 2.543 4.039 2.776 3.984 3.011 3.93L596 297.47l3.638 3.993 3.892 3.943 4.342 4.078 4.613 4.033 5.12 4.184 5.682 4.351 6.306 4.536 6.648 4.51 3.946 2.566M566.54 186.747l.45 14.591.56 11.218.673 9.172.795 7.857.921 6.905 1.028 6.069 1.176 5.611 1.307 5.146 1.454 4.808 1.583 4.465 1.744 4.253 1.894 4.037 2.109 3.959 2.24 3.738 2.446 3.658 2.654 3.578 2.992 3.65 3.224 3.574 3.45 3.496 3.85 3.581 4.091 3.506 4.542 3.601 5.043 3.706 5.319 3.637 5.876 3.753 6.49 3.881 7.169 4.021 3.073 1.651M566.56 186.807l.456 14.289.567 11.033.677 8.98.793 7.655.912 6.694 1.036 5.976 1.154 5.378 1.274 4.902 1.407 4.55 1.571 4.327 1.731 4.101 1.881 3.874 2.014 3.643 2.214 3.546 2.418 3.449 2.624 3.352 2.828 3.254 3.172 3.3 3.395 3.204 3.608 3.106 4.007 3.158 4.451 3.216 4.696 3.122 5.189 3.185 5.733 3.255 6.335 3.332 7 3.416 7.328 3.331.813.356m-81.273-134.927l.459 14.111.567 10.85.683 8.915.801 7.583.921 6.613 1.021 5.762 1.159 5.281 1.279 4.796 1.413 4.435 1.527 4.072 1.671 3.833 1.802 3.594 1.994 3.482 2.192 3.369 2.394 3.257 2.598 3.144 2.8 3.031 2.998 2.917 3.347 2.937 3.557 2.823 3.951 2.845 4.17 2.731 4.609 2.754 5.094 2.78 5.63 2.808 5.897 2.696 6.485 2.727 7.132 2.76 4.866 1.762" class="B"/><path d="M566.572 186.921l.454 13.935.565 10.792.681 8.85.783 7.388.894 6.411 1.007 5.676 1.144 5.185 1.263 4.693 1.395 4.322 1.507 3.951 1.649 3.702 1.779 3.453 1.969 3.327 2.076 3.077 2.253 2.95 2.428 2.823 2.725 2.818 2.917 2.69 3.101 2.562 3.446 2.555 3.636 2.427 4.02 2.419 4.444 2.41 4.913 2.4 5.147 2.27 5.662 2.259 6.229 2.246 6.852 2.232 7.538 2.217.836.232" class="B"/><path d="M566.563 186.979l.453 14.003.559 10.734.673 8.787.79 7.44.889 6.334 1.002 5.592 1.108 4.97 1.25 4.591 1.337 4.091 1.484 3.832 1.624 3.574 1.752 3.315 1.862 3.058 2.035 2.919 2.208 2.779 2.38 2.639 2.549 2.499 2.846 2.472 3.026 2.331 3.363 2.299 3.55 2.156 3.925 2.121 4.34 2.081 4.547 1.936 5.003 1.892 5.505 1.844 6.057 1.791 6.665 1.732 7.335 1.667 2.05.427" class="B"/><path d="M566.545 187.037l.449 14.193.554 10.799.661 8.723.775 7.37.892 6.377.988 5.507 1.093 4.878 1.233 4.488 1.32 3.982 1.464 3.712 1.546 3.329 1.721 3.177 1.829 2.911 1.998 2.759 2.169 2.606 2.339 2.454 2.504 2.301 2.663 2.15 2.959 2.099 3.124 1.946 3.454 1.889 3.82 1.825 4.003 1.669 4.406 1.599 4.848 1.521 5.336 1.436 5.873 1.342 6.465 1.239 7.116 1.124 1.989.275" class="B"/><path d="M566.519 187.096l.441 14.503.549 10.983.654 8.78.758 7.298.872 6.297.966 5.42 1.098 4.899 1.177 4.266 1.291 3.87 1.432 3.589 1.511 3.2 1.619 2.926 1.78 2.762 1.945 2.597 2.018 2.331 2.161 2.17 2.414 2.106 2.567 1.942 2.853 1.868 3.012 1.703 3.331 1.621 3.492 1.455 3.843 1.364 4.23 1.264 4.656 1.153 5.125 1.031 5.642.896 6.213.748 6.841.584 1.142.076" class="B"/><path d="M566.483 187.158l.43 14.932.536 11.165.637 8.834.743 7.343.861 6.331.962 5.443 1.072 4.795 1.149 4.156 1.26 3.75 1.352 3.35 1.469 3.063 1.573 2.78 1.73 2.602 1.81 2.327 1.952 2.154 2.091 1.981 2.223 1.811 2.471 1.723 2.61 1.55 2.886 1.452 3.025 1.279 3.33 1.171 3.666 1.051 4.035.919 4.443.774 4.892.614 5.388.438 5.607.235 6.145.044" class="B"/><path d="M566.44 187.222l.413 15.479.519 11.464.621 9.003.722 7.382.825 6.242.921 5.345 1.027 4.687 1.133 4.149 1.213 3.622 1.301 3.213 1.414 2.915 1.515 2.623 1.598 2.338 1.735 2.151 1.871 1.964 2.004 1.778 2.131 1.595 2.25 1.416 2.489 1.304 2.754 1.18 2.887.994 3.178.857 3.499.706 3.853.539 4.243.356 4.673.153 4.864-.06 5.332-.28 2.855-.229" class="B"/><path d="M566.409 187.264l.401 15.926.505 11.665.613 9.194.71 7.446.817 6.295.92 5.388 1.006 4.608 1.111 4.063 1.189 3.53 1.275 3.115 1.386 2.809 1.485 2.509 1.566 2.218 1.7 2.021 1.834 1.824 1.964 1.629 2.089 1.436 2.207 1.248 2.441 1.118 2.559.929 2.817.786 3.102.628 3.416.454 3.762.263 4.143.051 4.313-.167 4.728-.397 5.184-.649m-59.225-94.994l-.874 1.479-.114.737.114.713.342.708.646 1.197-.133.219" class="B"/><path d="M566.479 184.918l-.899 1.245-.188.704.044.686.268.668.522.678.411.598-.151.252-.029.032" class="B"/><path d="M566.536 187.626l-.901 1.014-.273.677-.032.659.189.639.419.618.701.946-.13.121" class="B"/><path d="M566.599 190.332l-.874.789-.365.639-.117.639.11.626.331.593.569.551.521.49-.021.024-.183.134" class="B"/><path d="M566.668 193.037l-.834.596-.458.6-.201.619.032.609.253.581.48.536.711.45.229.161-.057.047-.191.094" class="B"/><path d="M566.744 195.741l-.787.436-.544.549-.287.593-.048.592.176.576.396.531.612.445.72.29-.257.083-.02.007" class="B"/><path d="M566.828 198.442l-.75.313-.614.486-.371.563-.127.585.102.568.324.533.542.461.711.316.446.063-.309.026" class="B"/><path d="M566.921 201.14l-.727.217-.677.425-.454.539-.199.567.034.56.256.533.476.475.678.36.712.139.191-.05-.344-.044" class="B"/><path d="M567.023 203.835l-.715.14-.729.363-.534.505-.275.554-.034.556.188.533.412.49.63.397.753.216.571-.04.05-.084-.047-.042-.33-.059" class="B"/><path d="M567.137 206.526l-.71.075-.778.303-.606.464-.355.538-.108.548.118.534.34.502.565.431.741.287.745.062.391-.152-.043-.142-.318-.104-.049-.005" class="B"/><path d="M567.262 209.212l-.708.018-.814.239-.687.425-.439.519-.185.546.048.539.268.51.494.457.706.347.807.155.66-.08.244-.211-.083-.168-.352-.139-.035-.006" class="B"/><path d="M567.4 211.893l-.719-.031-.856.184-.756.383-.528.507-.259.542-.02.54.201.518.43.482.656.394.816.233.81.01.531-.191.134-.24-.129-.202-.395-.168" class="B"/><path d="M567.554 214.567l-.737-.076-.897.133-.824.34-.614.484-.345.545-.09.547.136.53.359.496.592.433.794.304.882.106.752-.12.407-.261.064-.269-.174-.234-.4-.186" class="B"/><path d="M567.724 217.235l-.765-.119-.922.081-.892.293-.706.458-.435.535-.174.552.058.538.278.514.514.472.742.373.897.205.898-.014.681-.217.324-.308.023-.295-.207-.271-.421-.214" class="B"/><path d="M567.912 219.894l-.791-.159-.972.035-.957.251-.795.432-.523.524-.258.554-.019.553.205.534.43.495.676.43.886.294.979.091.873-.131.597-.298.25-.35-.023-.325-.253-.305-.426-.227" class="B"/><path d="M568.12 222.544l-.813-.198-1.003-.014-1.021.202-.879.39-.636.515-.359.562-.106.564.12.548.35.529.588.475.817.371.983.204 1.013-.012.849-.222.537-.351.214-.383-.041-.358-.267-.338-.481-.278" class="B"/><path d="M568.351 225.183l-.849-.237-1.05-.057-1.102.163-.969.362-.73.499-.456.572-.187.573.044.569.264.542.502.513.754.44.953.298 1.083.105 1.026-.119.794-.302.479-.401.176-.417-.069-.397-.298-.374-.517-.313" class="B"/><path d="M568.608 227.81l-.884-.274-1.094-.101-1.163.117-1.065.327-.833.477-.561.563-.29.591-.047.586.179.574.404.541.647.491.895.394 1.075.228 1.132.016 1.022-.198.772-.361.458-.44.169-.452-.069-.427-.301-.417-.555-.373-.058-.028" class="B"/><path d="M568.892 230.423l-.916-.31-1.137-.145-1.221.069-1.164.287-.958.461-.68.565-.396.608-.138.6.091.601.313.569.561.544.815.467 1.04.333 1.17.143 1.189-.077 1.02-.282.736-.419.433-.487.149-.485-.084-.465-.309-.446-.559-.41-.143-.074" class="B"/><path d="M569.207 233.021l-.97-.35-1.177-.184-1.274.024-1.237.24-1.072.428-.815.56-.52.619-.246.624-.009.623.218.606.446.574.703.532.957.435 1.146.276 1.253.076 1.224-.145 1.036-.341.742-.464.44-.522.164-.526-.071-.503-.297-.49-.555-.464-.293-.165" class="B"/><path d="M569.556 235.601l-.998-.383-1.211-.227-1.352-.026-1.333.195-1.184.393-.937.536-.658.625-.369.645-.12.639.107.637.328.607.568.58.834.522 1.063.401 1.269.236 1.333.021 1.26-.197 1.063-.383.782-.51.472-.564.192-.564-.043-.541-.27-.535-.516-.509-.515-.32" class="B"/><path d="M569.944 238.162l-1.05-.423-1.274-.269-1.398-.069-1.428.152-1.293.356-1.08.524-.779.613-.5.662-.238.669-.003.661.22.646.449.622.697.581.97.51 1.197.372 1.366.187 1.412-.032 1.321-.252 1.085-.424.805-.54.512-.603.23-.6-.01-.595-.237-.578-.47-.549-.742-.51-.022-.012" class="B"/><path d="M570.374 240.701l-1.102-.461-1.336-.311-1.473-.113-1.522.109-1.401.319-1.201.495-.925.611-.638.676-.363.695-.117.7.111.676.34.669.575.633.83.58 1.079.483 1.297.339 1.457.149 1.458-.069 1.363-.28 1.154-.456.87-.572.576-.635.296-.651.047-.631-.179-.622-.412-.604-.669-.57-.402-.242" class="B"/><path d="M570.852 243.215l-1.153-.499-1.397-.354-1.547-.159-1.573.058-1.51.272-1.328.455-1.09.6-.797.681-.511.715-.256.733-.015.722.213.709.451.693.692.647.955.584 1.209.475 1.43.317 1.547.113 1.536-.106 1.434-.317 1.218-.491.929-.604.634-.666.355-.682.108-.685-.121-.661-.351-.655-.59-.619-.796-.537" class="B"/><path d="M571.382 245.701l-1.202-.537-1.456-.398-1.619-.207-1.659.009-1.614.224-1.488.426-1.254.588-.954.685-.659.732-.395.764-.143.764.088.739.307.716.537.696.799.667 1.072.595 1.334.477 1.518.302 1.632.098 1.619-.121 1.52-.332 1.306-.507 1.018-.621.744-.707.452-.729.191-.714-.039-.72-.266-.703-.504-.683-.746-.634-.496-.308" class="B"/><path d="M571.971 248.156l-1.249-.572-1.512-.442-1.687-.256-1.74-.043-1.764.179-1.607.382-1.39.549-1.132.678-.828.74-.559.786-.298.8-.054.787.175.779.398.749.635.722.908.688 1.151.593 1.414.476 1.596.303 1.715.101 1.707-.117 1.617-.328 1.411-.505 1.159-.642.857-.715.584-.769.31-.761.075-.751-.146-.746-.38-.745-.625-.717-.872-.659-.267-.158" class="B"/><path d="M572.625 250.577l-1.34-.625-1.569-.48-1.752-.301-1.874-.092-1.862.133-1.77.35-1.557.532-1.3.675-.987.75-.712.808-.443.834-.19.83.041.803.258.788.49.782.734.75 1.018.712 1.268.61 1.542.486 1.73.304 1.798.092 1.843-.13 1.701-.338 1.543-.531 1.247-.654.975-.752.695-.813.407-.809.164-.804-.064-.808-.29-.789-.531-.778-.781-.738-.875-.582" class="B"/><path d="M573.351 252.958l-1.383-.658-1.615-.522-1.809-.352-1.949-.152-1.956.069-1.889.285-1.751.489-1.501.649-1.221.769-.898.818-.623.857-.361.866-.12.85.104.849.325.828.564.82.816.786 1.069.722 1.365.646 1.601.506 1.795.331 1.932.124 1.935-.1 1.861-.32 1.663-.507 1.419-.657 1.146-.768.862-.841.562-.846.31-.852.077-.867-.146-.828-.378-.837-.626-.822-.883-.778-.792-.514" class="B"/><path d="M574.157 255.296l-1.479-.713-1.724-.575-1.934-.401-2.02-.192-2.108.027-2.054.253-1.865.45-1.684.636-1.403.769-1.07.828-.79.879-.521.898-.271.892-.043.903.185.895.409.868.655.857.912.82 1.174.753 1.427.653 1.66.519 1.858.352 2.006.153 2.022-.066 1.966-.282 1.841-.488 1.601-.651 1.329-.775 1.043-.862.755-.912.462-.893.227-.921-.007-.89-.227-.879-.465-.886-.72-.867-.985-.82-.714-.454" class="B"/><path d="M575.053 257.586l-1.514-.743-1.761-.616-1.979-.456-2.153-.262-2.19-.04-2.158.181-2.06.394-1.834.57-1.632.738-1.337.849-1.037.921-.742.959-.464.967-.209.95.024.955.255.942.48.91.732.899.997.861 1.267.793 1.531.691 1.776.555 1.987.384 2.075.177 2.174-.039 2.128-.265 1.946-.461 1.779-.648 1.507-.784 1.218-.881.925-.942.641-.971.373-.971.13-.947-.094-.947-.316-.929-.56-.933-.822-.912-1.094-.862-.603-.375" class="B"/><path d="M576.048 259.822l-1.611-.798-1.871-.672-2.105-.51-2.211-.306-2.258-.094-2.329.127-2.247.351-2.026.538-1.837.719-1.543.842-1.24.927-.941.977-.657.996-.393.988-.16 1.007.067.96.298.992.526.959.784.951 1.057.915 1.338.849 1.615.749 1.877.614 2.028.429 2.207.238 2.249.021 2.226-.197 2.14-.409 1.993-.61 1.728-.76 1.443-.873 1.15-.948.862-.991.589-1.004.337-.991.111-1.007-.116-1.005-.34-.986-.558-.951-.807-.94-1.071-.903-.985-.638" class="B"/><path d="M577.153 261.997l-1.711-.855-1.899-.703-2.138-.557-2.345-.376-2.407-.16-2.41.058-2.352.274-2.237.481-2.067.674-1.778.813-1.477.912-1.176.976-.887 1.008-.643 1.064-.375 1.048-.139 1.064.088 1.01.322 1.046.551 1.013.815 1.01 1.042.937 1.315.886 1.591.804 1.859.688 2.108.537 2.231.34 2.392.136 2.403-.089 2.35-.311 2.153-.501 1.995-.687 1.722-.819 1.494-.957 1.187-1.026.888-1.062.608-1.069.351-1.051.124-1.067-.105-1.066-.331-1.048-.552-1.015-.808-1.013-1.081-.984-1.364-.926-.064-.038" class="B"/><path d="M578.381 264.105l-1.814-.914-2.007-.76-2.262-.616-2.382-.421-2.559-.224-2.577-.001-2.535.222-2.436.437-2.19.61-2.003.783-1.703.895-1.462 1.019-1.146 1.069-.848 1.088-.573 1.08-.339 1.109-.103 1.063.111 1.06.347 1.101.577 1.068.845 1.07 1.076.999 1.358.955 1.647.879 1.934.769 2.11.6 2.341.433 2.432.225 2.467.013 2.548-.212 2.368-.415 2.238-.613 2.058-.798 1.762-.921 1.458-1.007 1.159-1.058.912-1.135.626-1.135.365-1.11.137-1.126-.092-1.126-.32-1.111-.543-1.08-.803-1.086-1.028-1.019-1.303-.98-.694-.429" class="B"/><path d="M579.746 266.137l-1.823-.931-2.108-.827-2.381-.686-2.512-.49-2.594-.286-2.746-.077-2.724.151-2.644.374-2.404.558-2.235.741-2.023.909-1.7 1.007-1.381 1.068-1.129 1.156-.823 1.163-.545 1.144-.311 1.169-.076 1.114.136 1.11.372 1.157.601 1.123.822 1.074 1.095 1.067 1.386 1.031 1.689.965 1.899.827 2.178.703 2.33.524 2.55.345 2.614.131 2.624-.086 2.581-.301 2.484-.51 2.336-.708 2.052-.85 1.835-1.002 1.518-1.081 1.209-1.126.918-1.141.68-1.194.416-1.166.19-1.184-.039-1.187-.267-1.176-.491-1.15-.709-1.109-.974-1.112-1.26-1.088-1.48-.988-.079-.046" class="B"/><path d="M581.263 268.086l-1.92-.987-2.218-.888-2.385-.72-2.641-.564-2.736-.359-2.783-.149-2.912.071-2.854.3-2.619.493-2.471.685-2.279.864-1.957.974-1.718 1.105-1.387 1.154-1.076 1.17-.831 1.23-.551 1.202-.319 1.226-.083 1.236.152 1.231.385 1.213.612 1.18.832 1.134 1.109 1.135 1.408 1.11 1.633 1.004 1.934.927 2.236.814 2.407.638 2.66.467 2.751.252 2.79.033 2.776-.187 2.711-.403 2.594-.612 2.323-.768 2.133-.935 1.821-1.031 1.588-1.152 1.271-1.191.973-1.199.737-1.253.47-1.219.246-1.239.02-1.246-.207-1.239-.43-1.218-.649-1.184-.917-1.201-1.141-1.133-1.431-1.106-1.103-.696" class="B"/><path d="M582.948 269.942l-2.016-1.043-2.327-.95-2.498-.783-2.775-.633-2.88-.428-2.938-.217-2.95-.003-2.915.208-2.834.416-2.707.615-2.539.803-2.219.925-2 1.067-1.667 1.128-1.425 1.226-1.107 1.233-.864 1.291-.583 1.255-.354 1.279-.122 1.291.109 1.289.339 1.273.565 1.245.784 1.204 1.063 1.221 1.288 1.147 1.591 1.119 1.911 1.06 2.121.92 2.426.804 2.587.622 2.844.448 2.927.23 2.959.008 2.941-.214 2.872-.433 2.754-.644 2.47-.799 2.283-.969 1.963-1.063 1.735-1.188 1.411-1.226 1.167-1.307.865-1.295.625-1.339.362-1.287.14-1.301-.083-1.301-.305-1.288-.524-1.263-.79-1.301-1.022-1.244-1.321-1.239-1.55-1.145-.952-.59" class="B"/><path d="M584.822 271.694l-2.11-1.098-2.434-1.014-2.609-.848-2.906-.705-3.021-.501-3.091-.29-3.117-.077-3.099.137-3.035.347-2.928.551-2.78.746-2.592.928-2.249 1.035-2.019 1.171-1.674 1.217-1.428 1.31-1.106 1.303-.864 1.357-.584 1.309-.36 1.332-.134 1.343.092 1.342.317 1.329.538 1.303.754 1.266 1.034 1.297 1.26 1.229 1.571 1.217 1.792 1.113 2.115 1.05 2.312.905 2.62.786 2.769.601 3.032.424 3.106.204 3.131-.02 3.107-.243 3.036-.462 2.917-.675 2.62-.828 2.436-.999 2.218-1.156 1.872-1.226 1.542-1.26 1.305-1.346.999-1.331.766-1.381.526-1.416.27-1.348.053-1.355-.165-1.351-.382-1.335-.594-1.308-.862-1.352-1.089-1.294-1.393-1.298-1.62-1.204-1.16-.723" class="B"/><path d="M586.904 273.33l-2.345-1.219-2.55-1.068-2.725-.905-3.041-.77-3.163-.567-3.243-.358-3.281-.145-3.276.068-3.229.279-3.14.485-3.011.684-2.844.873-2.64 1.05-2.277 1.14-2.04 1.27-1.684 1.3-1.438 1.388-1.112 1.367-.875 1.418-.631 1.456-.364 1.382-.146 1.392.074 1.392.292 1.38.507 1.358.776 1.418 1.01 1.368 1.234 1.305 1.55 1.31 1.775 1.212 2.112 1.168 2.32 1.031 2.655.929 2.824.751 2.958.564 3.226.384 3.287.162 3.303-.062 3.272-.285 3.196-.504 3.075-.716 2.762-.865 2.581-1.036 2.367-1.194 2.013-1.26 1.773-1.373 1.433-1.383 1.189-1.457.883-1.42.651-1.46.414-1.488.169-1.402-.042-1.404-.253-1.395-.502-1.474-.737-1.439-.965-1.392-1.27-1.419-1.506-1.337-1.727-1.243-1.062-.653" class="B"/><path d="M589.22 274.837l-2.446-1.279-2.65-1.131-2.826-.971-3.163-.847-3.293-.648-3.384-.442-3.436-.233-3.448-.021-3.419.19-3.352.397-3.246.599-3.103.792-2.924.976-2.713 1.146-2.332 1.222-2.095 1.348-1.73 1.364-1.489 1.449-1.235 1.519-.915 1.47-.679 1.507-.438 1.533-.189 1.435.021 1.437.23 1.429.48 1.518.715 1.486.944 1.442 1.166 1.386 1.483 1.412 1.712 1.324 2.061 1.302 2.282 1.175 2.641 1.097 2.833.929 2.993.75 3.306.591 3.406.374 3.462.153 3.475-.07 3.444-.292 3.371-.511 3.255-.723 2.931-.869 2.759-1.041 2.556-1.201 2.195-1.265 1.968-1.383 1.722-1.487 1.376-1.476 1.133-1.542.83-1.487.603-1.522.372-1.545.139-1.557-.096-1.557-.329-1.545-.56-1.522-.787-1.486-1.007-1.44-1.314-1.479-1.546-1.401-1.889-1.394-1.432-.891" class="B"/><path d="M591.794 276.2l-2.541-1.336-2.742-1.192-3.119-1.101-3.287-.915-3.421-.72-3.52-.519-3.583-.313-3.834-.105-3.818.13-3.758.362-3.444.548-3.317.742-3.157.927-2.966 1.102-2.744 1.265-2.347 1.321-2.108 1.439-1.852 1.543-1.483 1.521-1.234 1.587-.917 1.521-.69 1.556-.459 1.581-.226 1.594.007 1.596.24 1.588.47 1.569.697 1.539.918 1.499 1.227 1.558 1.465 1.488 1.691 1.407 2.047 1.404 2.272 1.286 2.649 1.229 2.854 1.07 3.03.9 3.176.722 3.498.564 3.587.348 3.636.129 3.644-.092 3.611-.311 3.538-.528 3.426-.738 3.275-.94 2.913-1.06 2.718-1.22 2.498-1.367 2.119-1.404 1.885-1.51 1.634-1.603 1.287-1.568 1.047-1.626.798-1.671.514-1.581.291-1.598.067-1.606-.158-1.602-.381-1.589-.602-1.565-.819-1.531-1.118-1.599-1.354-1.535-1.579-1.46-1.928-1.469-2.005-1.27" class="B"/><path d="M594.657 277.403l-2.629-1.389-2.825-1.25-3.22-1.175-3.391-.995-3.53-.807-3.638-.612-3.962-.433-4.006-.202-4.009.029-3.97.259-3.891.486-3.772.706-3.394.854-3.226 1.032-3.029 1.199-2.805 1.355-2.395 1.393-2.16 1.505-1.91 1.605-1.538 1.568-1.3 1.632-1.055 1.684-.804 1.725-.515 1.618-.295 1.632-.073 1.638.147 1.633.367 1.62.583 1.597.795 1.565 1.095 1.649 1.33 1.59 1.556 1.52 1.915 1.548 2.148 1.444 2.364 1.329 2.752 1.284 2.953 1.13 3.129.966 3.499.84 3.632.635 3.729.425 3.788.21 3.81-.006 3.794-.223 3.741-.437 3.651-.647 3.525-.85 3.365-1.046 2.979-1.149 2.783-1.302 2.563-1.443 2.321-1.573 1.93-1.573 1.687-1.662 1.338-1.612 1.108-1.668.872-1.713.63-1.747.362-1.633.151-1.643-.062-1.644-.275-1.636-.485-1.619-.76-1.724-.999-1.681-1.231-1.628-1.455-1.564-1.806-1.602-2.04-1.504-1.922-1.202" class="B"/><path d="M597.841 278.427l-2.705-1.437-3.125-1.399-3.321-1.236-3.491-1.063-3.633-.882-4.017-.737-4.11-.517-4.166-.292-4.184-.066-4.164.16-4.106.384-4.011.602-3.88.815-3.715 1.019-3.289 1.126-3.09 1.285-2.868 1.433-2.625 1.569-2.202 1.567-1.96 1.661-1.707 1.744-1.341 1.673-1.11 1.723-.872 1.763-.63 1.792-.386 1.811-.138 1.668.068 1.666.274 1.657.531 1.788.769 1.757 1.002 1.716 1.228 1.666 1.447 1.606 1.805 1.662 2.039 1.57 2.258 1.468 2.66 1.456 2.876 1.316 3.069 1.165 3.475 1.072 3.639.881 3.77.682 3.869.478 3.933.269 3.964.058 3.96-.153 3.922-.363 3.85-.569 3.744-.771 3.607-.966 3.438-1.153 3.24-1.33 2.82-1.391 2.602-1.525 2.364-1.648 1.966-1.629 1.733-1.714 1.488-1.787 1.148-1.705.925-1.749.696-1.783.464-1.807.229-1.821-.008-1.825-.244-1.818-.479-1.802-.711-1.775-.939-1.739-1.162-1.693-1.502-1.771-1.745-1.694-1.976-1.606-2.195-1.507-1.267-.767" class="B"/><path d="M601.382 279.253l-3.006-1.595-3.218-1.449-3.408-1.292-3.575-1.128-4.008-1.022-4.141-.816-4.241-.603-4.308-.387-4.34-.168-4.338.051-4.301.269-4.23.484-4.127.694-3.99.898-3.823 1.094-3.626 1.28-3.166 1.345-2.951 1.486-2.717 1.616-2.466 1.735-2.039 1.695-1.8 1.775-1.552 1.845-1.296 1.903-.957 1.786-.732 1.816-.505 1.838-.276 1.85-.046 1.854.183 1.848.41 1.833.635 1.81.855 1.778 1.071 1.737 1.408 1.84 1.65 1.771 1.881 1.693 2.101 1.605 2.51 1.63 2.736 1.506 2.944 1.372 3.38 1.318 3.571 1.143 3.735.96 3.87.77 3.976.574 4.343.393 4.392.16 4.403-.074 4.376-.307 4.311-.538 3.932-.706 3.814-.898 3.667-1.083 3.492-1.26 3.292-1.427 3.066-1.584 2.625-1.601 2.394-1.717 2.147-1.821 1.75-1.763 1.518-1.832 1.278-1.891 1.03-1.939.721-1.811.505-1.834.285-1.849.065-1.855-.156-1.853-.376-1.842-.594-1.822-.809-1.793-1.021-1.757-1.349-1.864-1.588-1.8-1.817-1.726-2.035-1.642-2.438-1.673-1.408-.852" class="B"/><path d="M605.322 279.857l-3.075-1.641-3.278-1.503-3.462-1.356-3.934-1.295-4.099-1.106-4.236-.91-4.344-.708-4.422-.501-4.469-.293-4.486-.082-4.472.128-4.427.336-4.353.542-4.248.742-4.115.937-3.954 1.125-3.767 1.304-3.554 1.473-3.072 1.5-2.854 1.626-2.62 1.741-2.372 1.846-2.111 1.939-1.696 1.85-1.46 1.909-1.217 1.959-.97 1.999-.719 2.029-.433 1.862-.223 1.871-.012 1.872.198 1.866.407 1.853.613 1.832.909 1.982 1.15 1.938 1.385 1.886 1.612 1.824 1.831 1.754 2.236 1.824 2.472 1.721 2.693 1.608 2.899 1.486 3.353 1.464 3.552 1.302 3.728 1.132 3.878.956 4.316.825 4.428.607 4.507.385 4.552.16 4.562-.066 4.538-.292 4.481-.515 4.389-.734 4.265-.948 4.109-1.155 3.649-1.25 3.464-1.413 3.257-1.567 3.029-1.711 2.577-1.698 2.351-1.802 2.112-1.896 1.862-1.98 1.478-1.88 1.252-1.932 1.02-1.976.782-2.011.542-2.036.298-2.052.059-1.871-.144-1.869-.392-2.045-.635-2.024-.875-1.994-1.111-1.954-1.341-1.905-1.565-1.846-1.782-1.78-2.181-1.855-2.415-1.755-2.636-1.645" class="B"/><path d="M609.706 280.214l-3.123-1.676-3.625-1.682-3.832-1.52-4.017-1.349-4.178-1.171-4.314-.987-4.425-.797-4.889-.644-4.955-.413-4.987-.179-4.985.055-4.948.288-4.877.518-4.773.743-4.637.963-4.132 1.077-3.966 1.25-3.776 1.416-3.566 1.572-3.335 1.718-3.086 1.854-2.595 1.809-2.36 1.904-2.114 1.989-1.858 2.064-1.461 1.933-1.238 1.978-1.011 2.016-.78 2.045-.548 2.065-.314 2.077-.08 2.081.154 2.077.387 2.064.617 2.043.844 2.013 1.067 1.976 1.284 1.932 1.658 2.064 1.906 1.991 2.144 1.909 2.371 1.818 2.586 1.718 3.052 1.752 3.275 1.614 3.48 1.469 3.664 1.315 4.153 1.242 4.318 1.046 4.454.843 4.561.635 4.639.422 4.686.208 4.703-.008 4.69-.224 4.646-.438 4.573-.649 4.47-.856 4.338-1.058 4.179-1.253 3.992-1.44 3.497-1.487 3.297-1.63 3.079-1.765 2.843-1.89 2.592-2.005 2.143-1.93 1.91-2.008 1.667-2.077 1.417-2.137 1.065-1.986.849-2.02.628-2.046.406-2.064.181-2.074-.044-2.075-.269-2.069-.493-2.055-.716-2.033-.935-2.003-1.151-1.965-1.51-2.109-1.759-2.044-1.999-1.969-2.23-1.884-2.45-1.791-2.909-1.838-.253-.147" class="B"/><path d="M614.584 280.296l-3.471-1.862-3.685-1.719-3.88-1.569-4.057-1.41-4.214-1.246-4.751-1.164-4.884-.955-4.989-.74-5.064-.522-5.11-.301-5.125-.079-5.11.142-5.065.362-4.991.58-4.887.793-4.755 1-4.596 1.201-4.41 1.394-3.857 1.439-3.662 1.586-3.448 1.724-3.219 1.853-2.975 1.973-2.717 2.082-2.236 1.979-2.005 2.052-1.766 2.116-1.521 2.171-1.271 2.218-1.017 2.255-.695 2.054-.485 2.07-.274 2.079-.063 2.082.147 2.077.356 2.066.564 2.048.769 2.024 1.091 2.212 1.335 2.166 1.573 2.111 1.804 2.048 2.027 1.977 2.477 2.083 2.725 1.978 2.958 1.865 3.177 1.742 3.381 1.612 3.901 1.602 4.101 1.43 4.278 1.25 4.431 1.064 4.56.872 4.663.676 4.74.476 4.791.274 5.218.067 5.213-.172 5.175-.41 4.715-.587 4.628-.784 4.517-.977 4.38-1.165 4.22-1.346 4.036-1.52 3.831-1.686 3.604-1.843 3.087-1.819 2.866-1.934 2.631-2.04 2.383-2.137 2.124-2.225 1.698-2.09 1.47-2.146 1.235-2.193.995-2.232.752-2.263.505-2.285.242-2.068.039-2.072-.164-2.07-.366-2.061-.643-2.272-.889-2.244-1.132-2.208-1.37-2.162-1.603-2.109-1.83-2.047-2.05-1.976-2.499-2.084-2.742-1.979-2.973-1.866-.281-.164" class="B"/><path d="M620.015 280.071l-3.497-1.887-3.695-1.756-4.276-1.774-4.477-1.599-4.656-1.417-4.812-1.229-4.944-1.034-5.051-.835-5.134-.632-5.19-.427-5.221-.22-5.226-.012-5.205.195-5.159.4-5.086.603-4.989.803-4.867.997-4.722 1.186-4.554 1.368-4.363 1.543-4.152 1.709-3.921 1.866-3.349 1.825-3.13 1.938-2.899 2.044-2.657 2.14-2.406 2.227-2.145 2.305-1.702 2.134-1.48 2.182-1.254 2.222-1.025 2.256-.793 2.281-.56 2.3-.326 2.31-.091 2.313.143 2.309.376 2.297.606 2.278.834 2.251 1.059 2.218 1.279 2.177 1.495 2.129 1.907 2.302 2.158 2.227 2.4 2.142 2.631 2.05 2.852 1.95 3.061 1.843 3.594 1.895 3.814 1.748 4.016 1.594 4.199 1.432 4.361 1.264 4.504 1.091 5.051.986 5.167.769 5.255.548 5.314.325 5.343.099 5.344-.126 5.315-.351 5.258-.574 5.172-.794 5.058-1.009 4.916-1.219 4.747-1.422 4.181-1.476 3.998-1.634 3.797-1.785 3.578-1.927 3.343-2.061 3.092-2.185 2.581-2.086 2.351-2.173 2.113-2.252 1.866-2.322 1.611-2.383 1.227-2.19 1.012-2.226.793-2.254.572-2.276.348-2.29.124-2.298-.102-2.298-.327-2.291-.551-2.277-.774-2.255-.994-2.227-1.212-2.191-1.425-2.148-1.829-2.328-2.08-2.258-2.323-2.178-2.556-2.09-2.78-1.994-2.992-1.89-.623-.365" class="B"/><path d="M626.06 279.504l-3.886-2.096-4.108-1.952-4.313-1.799-4.5-1.64-4.669-1.474-4.819-1.302-4.949-1.125-5.569-1.028-5.674-.804-5.751-.577-5.798-.347-5.817-.116-5.807.115-5.768.345-5.7.573-5.604.796-5.48 1.015-5.33 1.228-5.153 1.435-4.511 1.476-4.326 1.634-4.125 1.783-3.907 1.925-3.674 2.059-3.427 2.183-3.167 2.298-2.618 2.158-2.39 2.236-2.155 2.306-1.914 2.368-1.667 2.422-1.416 2.467-1.161 2.505-.904 2.534-.586 2.27-.38 2.281-.174 2.285.032 2.284.237 2.277.441 2.264.642 2.245.961 2.497 1.21 2.458 1.454 2.412 1.692 2.358 1.924 2.296 2.15 2.228 2.367 2.153 2.876 2.296 3.123 2.186 3.357 2.069 3.577 1.943 3.783 1.811 3.974 1.672 4.573 1.671 4.763 1.488 4.931 1.298 5.075 1.103 5.196.903 5.293.7 5.366.493 5.414.284 5.437.075 5.435-.135 5.409-.344 5.357-.552 5.282-.757 5.182-.958 5.059-1.156 4.912-1.348 4.744-1.534 4.553-1.713 4.341-1.884 3.746-1.855 3.541-1.983 3.321-2.103 3.089-2.216 2.845-2.32 2.59-2.416 2.104-2.249 1.882-2.312 1.654-2.368 1.421-2.417 1.183-2.459.941-2.493.696-2.519.448-2.537.199-2.548-.033-2.267-.231-2.263-.496-2.534-.744-2.514-.991-2.486-1.234-2.451-1.474-2.407-1.709-2.356-1.939-2.297-2.163-2.23-2.38-2.157-2.889-2.301-3.136-2.193-3.37-2.075" class="B"/><path d="M630.142 278.964l-3.722-2.021-4.363-2.1-4.584-1.938-4.787-1.768-4.97-1.592-5.132-1.409-5.274-1.22-5.393-1.027-5.491-.83-5.565-.629-5.617-.427-5.645-.223-5.65-.019-5.632.185-5.59.388-5.526.588-5.438.785-5.329.979-5.198 1.168-5.046 1.351-4.873 1.528-4.681 1.698-4.471 1.86-4.243 2.014-3.998 2.16-3.376 2.06-3.155 2.162-2.925 2.257-2.685 2.344-2.438 2.423-2.184 2.494-1.923 2.556-1.657 2.61-1.246 2.357-1.03 2.387-.813 2.409-.594 2.426-.374 2.436-.154 2.44.066 2.437.284 2.429.501 2.414.717 2.393.929 2.366 1.139 2.333 1.345 2.295 1.754 2.528 2.003 2.465 2.245 2.393 2.478 2.314 2.704 2.229 2.92 2.136 3.486 2.257 3.726 2.126 3.952 1.988 4.161 1.842 4.354 1.69 4.53 1.532 4.689 1.368 5.319 1.309 5.463 1.1 5.583.885 5.676.667 5.744.446 5.785.223h5.8l5.789-.223 5.751-.446 5.687-.666 5.597-.883 5.482-1.096 5.342-1.304 5.177-1.507 4.989-1.702 4.353-1.711 4.162-1.86 3.955-2.002 3.734-2.137 3.497-2.264 3.247-2.383 2.699-2.238 2.477-2.321 2.248-2.396 2.012-2.463 1.769-2.523 1.52-2.576 1.267-2.62.909-2.36.703-2.383.495-2.4.285-2.411.074-2.417-.137-2.416-.348-2.409-.559-2.396-.768-2.378-.975-2.353-1.18-2.322-1.57-2.568-1.821-2.513-2.067-2.451-2.306-2.38-2.538-2.302-2.762-2.216-2.977-2.123-3.548-2.241-.739-.433" class="B"/></g><use xlink:href="#C" stroke="red" class="B G"/></g><path d="M646.043 132.86h125.966q2 0 2-2V73.148q0-2-2-2H646.043q-2 0-2 2v57.713q0 2 2 2z" fill="#fff" opacity=".8" stroke="#ccc"/><path d="M648.043 79.246h20" stroke="#1f77b4" stroke-width=".7" class="C"/><g transform="matrix(.1 0 0 -.1 676.042695 82.746278)"><defs><path id="i" d="M3597 1894v-281H953q38-594 358-905 320-311 892-311 331 0 642 81 311 81 618 244V178Q3153 47 2828-22q-325-69-659-69-838 0-1327 487-489 488-489 1320 0 859 464 1363 464 505 1252 505 706 0 1117-455 411-454 411-1235zm-575 169q-6 471-264 752-258 282-683 282-481 0-770-272-289-272-333-766l2050 4z" transform="scale(.015625)"/><path id="j" d="M3513 3500L2247 1797 3578 0h-678L1881 1375 863 0H184l1360 1831L300 3500h678l928-1247 928 1247h679z" transform="scale(.015625)"/><path id="k" d="M1159 525v-1856H581v4831h578v-531q182 312 458 463 277 152 661 152 638 0 1036-506 399-506 399-1331 0-825-399-1332Q2916-91 2278-91q-384 0-661 152-276 152-458 464zm1957 1222q0 634-261 995-261 361-717 361-457 0-718-361-261-361-261-995 0-634 261-995 261-361 718-361 456 0 717 361 261 361 261 995z" transform="scale(.015625)"/><path id="l" d="M1984 4856q-418-718-622-1422-203-703-203-1425 0-721 205-1429 205-708 620-1424h-500Q1016-109 783 600q-233 709-233 1409 0 697 231 1403 232 707 703 1444h500z" transform="scale(.015625)"/><path id="m" d="M513 4856h500q468-737 701-1444 233-706 233-1403 0-700-233-1409-233-709-701-1444H513q415 716 620 1424 205 708 205 1429 0 722-205 1425-205 704-620 1422z" transform="scale(.015625)"/></defs><use xlink:href="#i"/><use xlink:href="#j" x="59.773"/><use xlink:href="#k" x="118.953"/><use xlink:href="#l" x="182.43"/><use xlink:href="#j" x="221.443"/><use xlink:href="#m" x="280.623"/></g><path d="M648.043 93.924h20" stroke="red" class="C G"/><g transform="matrix(.1 0 0 -.1 676.042695 97.424403)"><defs><path id="n" d="M544 1381v2119h575V1403q0-497 193-746 194-248 582-248 465 0 735 297 271 297 271 810v1984h575V0h-575v538q-209-319-486-474-276-155-642-155-603 0-916 375-312 375-312 1097zm1447 2203h0z" transform="scale(.015625)"/><path id="o" d="M603 4863h575V0H603v4863z" transform="scale(.015625)"/><path id="p" d="M2059-325q-243-625-475-815-231-191-618-191H506v481h338q237 0 368 113 132 112 291 531l103 262L191 3500h609L1894 763l1094 2737h609L2059-325z" transform="scale(.015625)"/><path id="q" d="M2194 1759q-697 0-966-159-269-159-269-544 0-306 202-486 202-179 548-179 479 0 768 339 289 339 289 901v128h-572zm1147 238V0h-575v531q-197-318-491-470-294-152-719-152-537 0-855 302-317 302-317 808 0 590 395 890 396 300 1180 300h807v57q0 397-261 614-261 217-733 217-300 0-585-72-284-72-546-216v532q315 122 612 182 297 61 578 61 760 0 1135-394 375-393 375-1193z" transform="scale(.015625)"/></defs><use xlink:href="#k"/><use xlink:href="#n" x="63.477"/><use xlink:href="#K" x="126.855"/><use xlink:href="#i" x="165.719"/><use xlink:href="#o" x="227.242"/><use xlink:href="#p" x="255.025"/><use xlink:href="#CA" x="314.205"/><use xlink:href="#K" x="345.992"/><use xlink:href="#i" x="384.855"/><use xlink:href="#q" x="446.379"/><use xlink:href="#o" x="507.658"/><use xlink:href="#CA" x="535.441"/><use xlink:href="#j" x="567.229"/></g><path d="M648.043 108.603h20" stroke="#00f" class="C G"/><g transform="matrix(.1 0 0 -.1 676.042695 112.102528)"><defs><path id="r" d="M3328 2828q216 388 516 572 300 184 706 184 547 0 844-383 297-382 297-1088V0h-578v2094q0 503-179 746-178 244-543 244-447 0-707-297-259-296-259-809V0h-578v2094q0 506-178 748-178 242-550 242-441 0-701-298-259-298-259-808V0H581v3500h578v-544q197 322 472 475 275 153 653 153 382 0 649-194 267-193 395-562z" transform="scale(.015625)"/><path id="s" d="M2906 1791q0 625-258 968-257 344-723 344-462 0-720-344-258-343-258-968 0-622 258-966 258-344 720-344 466 0 723 344 258 344 258 966zm575-1357q0-893-397-1329-396-436-1215-436-303 0-572 45-269 45-522 139v559q253-137 500-202 247-66 503-66 566 0 847 295 281 295 281 892v285q-178-310-456-463Q2172 0 1784 0 1141 0 747 490 353 981 353 1791q0 812 394 1302 394 491 1037 491 388 0 666-153 278-153 456-462v531h575V434z" transform="scale(.015625)"/><path id="t" d="M3513 2113V0h-575v2094q0 497-194 743-194 247-581 247-466 0-735-297-269-296-269-809V0H581v3500h578v-544q207 316 486 472 280 156 646 156 603 0 912-373 310-373 310-1098z" transform="scale(.015625)"/></defs><use xlink:href="#k"/><use xlink:href="#n" x="63.477"/><use xlink:href="#K" x="126.855"/><use xlink:href="#i" x="165.719"/><use xlink:href="#o" x="227.242"/><use xlink:href="#p" x="255.025"/><use xlink:href="#CA" x="314.205"/><use xlink:href="#L" x="345.992"/><use xlink:href="#r" x="373.775"/><use xlink:href="#q" x="471.188"/><use xlink:href="#s" x="532.467"/><use xlink:href="#L" x="595.943"/><use xlink:href="#t" x="623.727"/><use xlink:href="#q" x="687.105"/><use xlink:href="#K" x="748.385"/><use xlink:href="#p" x="789.498"/><use xlink:href="#CA" x="848.678"/><use xlink:href="#j" x="880.465"/></g><path d="M648.043 123.281h20" stroke="green" stroke-width="1.5" class="C"/><g transform="matrix(.1 0 0 -.1 676.042695 126.780653)"><defs><path id="u" d="M2834 3397v-544q-243 125-506 187-262 63-544 63-428 0-642-131-214-131-214-394 0-200 153-314 153-114 616-217l197-44q612-131 870-370 258-239 258-667 0-488-386-773Q2250-91 1575-91q-281 0-586 55-305 55-642 164v594q319-166 628-249 309-82 613-82 406 0 624 139 219 139 219 392 0 234-158 359-157 125-692 241l-200 47q-534 112-772 345-237 233-237 639 0 494 350 762 350 269 994 269 318 0 599-47 282-46 519-140z" transform="scale(.015625)"/></defs><use xlink:href="#q"/><use xlink:href="#j" x="61.279"/><use xlink:href="#i" x="117.334"/><use xlink:href="#u" x="178.857"/></g><g stroke="green" stroke-width="1.5" class="C"><path d="M566.567 462.893l-.347-174.591m-.004-2.533l.005 2.534m150.35-86.263L566.22 288.302" class="B"/><path d="M415.474 202.613l150.747 85.689m.346 174.591l-.032-16.055" class="B"/><path d="M566.567 462.893l-.037-18.472m-.314-158.652l.009 4.568m-.009-4.568l-.008-4.111m150.363-79.618l-12.258 11.741" class="B"/><path d="M716.571 202.04l-17.497 5.321m-283.6-4.748l12.313 11.698" class="B"/><path d="M415.474 202.613l17.53 5.256" class="B"/></g><defs><clipPath id="v"><path d="M354.56 66.148h424.449v424.449H354.56z"/></clipPath></defs></svg>